HIERARCHY
ROOT Hips
{
	OFFSET 0 0 0
	CHANNELS 6 Xposition Yposition Zposition Yrotation Xrotation Zrotation
	JOINT Spine
	{
		OFFSET -0 8.37147 -2.66841
		CHANNELS 3 Yrotation Xrotation Zrotation
		JOINT Spine1
		{
			OFFSET -0 8.81736 0
			CHANNELS 3 Yrotation Xrotation Zrotation
			JOINT Spine2
			{
				OFFSET -0 8.81736 0
				CHANNELS 3 Yrotation Xrotation Zrotation
				JOINT Spine3
				{
					OFFSET -0 8.81736 0
					CHANNELS 3 Yrotation Xrotation Zrotation
					JOINT Neck
					{
						OFFSET -0 20.2165 3.66841
						CHANNELS 3 Yrotation Xrotation Zrotation
						JOINT Head
						{
							OFFSET -0 10.4643 0
							CHANNELS 3 Yrotation Xrotation Zrotation
							End Site
							{
								OFFSET 0 15 0
							}
						}
					}
					JOINT LeftShoulder
					{
						OFFSET 1.74406 7.24 3.48811
						CHANNELS 3 Yrotation Xrotation Zrotation
						JOINT LeftArm
						{
							OFFSET 15.166 0 0
							CHANNELS 3 Yrotation Xrotation Zrotation
							JOINT LeftForeArm
							{
								OFFSET 25.1836 0 0
								CHANNELS 3 Yrotation Xrotation Zrotation
								JOINT LeftHand
								{
									OFFSET 23.8595 0 0
									CHANNELS 3 Yrotation Xrotation Zrotation
									End Site
									{
										OFFSET 15 0 0
									}
								}
							}
						}
					}
					JOINT RightShoulder
					{
						OFFSET -1.74406 7.24 3.48811
						CHANNELS 3 Yrotation Xrotation Zrotation
						JOINT RightArm
						{
							OFFSET -15.166 0 0
							CHANNELS 3 Yrotation Xrotation Zrotation
							JOINT RightForeArm
							{
								OFFSET -25.1836 0 0
								CHANNELS 3 Yrotation Xrotation Zrotation
								JOINT RightHand
								{
									OFFSET -23.8595 0 0
									CHANNELS 3 Yrotation Xrotation Zrotation
									End Site
									{
										OFFSET -15 0 0
									}
								}
							}
						}
					}
				}
			}
		}
	}
	JOINT LeftUpLeg
	{
		OFFSET 10.4643 -3.48811 2
		CHANNELS 3 Yrotation Xrotation Zrotation
		JOINT LeftLeg
		{
			OFFSET -0 -38.892 2.44168
			CHANNELS 3 Yrotation Xrotation Zrotation
			JOINT LeftFoot
			{
				OFFSET -0 -41.3956 -2.44168
				CHANNELS 3 Yrotation Xrotation Zrotation
				JOINT LeftToeBase
				{
					OFFSET -0 -6.7338 15.6965
					CHANNELS 3 Yrotation Xrotation Zrotation
					End Site
					{
						OFFSET 0 0 5
					}
				}
			}
		}
	}
	JOINT RightUpLeg
	{
		OFFSET -10.4643 -3.48811 2
		CHANNELS 3 Yrotation Xrotation Zrotation
		JOINT RightLeg
		{
			OFFSET -0 -38.892 2.44168
			CHANNELS 3 Yrotation Xrotation Zrotation
			JOINT RightFoot
			{
				OFFSET -0 -41.3956 -2.44168
				CHANNELS 3 Yrotation Xrotation Zrotation
				JOINT RightToeBase
				{
					OFFSET -0 -6.7338 15.6965
					CHANNELS 3 Yrotation Xrotation Zrotation
					End Site
					{
						OFFSET 0 0 5
					}
				}
			}
		}
	}
}
MOTION
Frames: 9
Frame Time: 0.00833333
0 93.707184 0 0 0 0 0 0 0 0 0 0 0 0 0 0 0 0 0 0 0 0 0 0 0 0 0 0 0 0 0 0 0 0 0 0 0 0 0 0 0 0 0 0 0 0 0 0 0 0 0 0 0 0 0 0 0 0 0 0 0 0 0 0 0 0 0 0 0 0 0 0
-83.818634 93.130402 11.153529 -1.127304 -2.040260 0.477870 0.175576 1.177909 -0.311364 0.097483 1.557538 -0.276061 0.069983 1.749896 -0.209229 0.005849 1.978499 -0.112894 1.726684 -2.618873 0.066962 0.596842 8.584226 -2.754703 14.829606 14.896522 -0.839599 -49.335427 2.381058 -55.424414 -20.533457 -1.674320 3.195574 8.968034 -1.105062 -21.752648 -8.235001 4.047068 -2.491296 36.268784 8.238307 67.470680 23.811652 3.893801 -6.643977 -12.785954 -5.314371 23.766727 5.545406 4.511454 7.655530 0.000000 1.484364 0.000000 6.854826 0.938129 -3.286449 0.000000 -2.178158 0.000000 -7.836393 4.251300 -7.757419 0.000000 2.233337 0.000000 -9.929557 -0.294664 5.093164 0.000000 -2.441295 0.000000
-83.821277 93.130206 11.161589 -1.125845 -2.047492 0.484848 0.192988 1.166185 -0.287100 0.115223 1.561963 -0.291407 0.076784 1.752691 -0.244068 0.007662 1.946407 -0.108108 1.703585 -2.570376 0.091450 0.582415 8.588400 -2.784549 14.785620 14.894220 -0.858219 -49.318312 2.432571 -55.418259 -20.518410 -1.621413 3.194693 8.943730 -1.133650 -21.751901 -8.276222 4.049953 -2.477440 36.280653 8.264021 67.507856 23.781807 3.915042 -6.636173 -12.748015 -5.354140 23.728469 5.532464 4.512907 7.651721 0.000000 1.506097 0.000000 6.861688 0.938380 -3.309335 0.000000 -2.176490 0.000000 -7.813753 4.261709 -7.762875 0.000000 2.243852 0.000000 -9.953508 -0.303568 5.093715 0.000000 -2.449332 0.000000
-83.826855 93.128320 11.169562 -1.106180 -2.054296 0.479578 0.182823 1.170158 -0.295042 0.105366 1.545987 -0.291949 0.075978 1.739136 -0.241816 0.008988 1.955504 -0.111432 1.718164 -2.564710 0.089185 0.589937 8.607502 -2.752548 14.831149 14.902201 -0.870368 -49.346456 2.435759 -55.388051 -20.490312 -1.684977 3.196080 8.949956 -1.079266 -21.722532 -8.257557 4.066629 -2.447677 36.297456 8.308664 67.515476 23.796661 3.947503 -6.657821 -12.785716 -5.428445 23.730873 5.526630 4.514326 7.662044 0.000000 1.521848 0.000000 6.852808 0.918274 -3.317057 0.000000 -2.153668 0.000000 -7.835004 4.262424 -7.757392 0.000000 2.271803 0.000000 -9.950143 -0.310680 5.106588 0.000000 -2.502178 0.000000
-83.832800 93.126227 11.178422 -1.099433 -2.063382 0.476258 0.188813 1.168710 -0.310624 0.111387 1.530085 -0.291184 0.079389 1.728194 -0.230798 0.015021 1.955947 -0.108052 1.709442 -2.533472 0.109030 0.581998 8.629467 -2.782111 14.816900 14.903222 -0.883762 -49.350925 2.433922 -55.393057 -20.414671 -1.573265 3.189575 8.883196 -1.291257 -21.775857 -8.243021 4.077473 -2.439938 36.233200 8.335711 67.535603 23.794217 4.010286 -6.654811 -12.778308 -5.428279 23.741123 5.506579 4.524361 7.667787 0.000000 1.530214 0.000000 6.860711 0.919851 -3.296284 0.000000 -2.205774 0.000000 -7.819810 4.267998 -7.752478 0.000000 2.301040 0.000000 -9.963047 -0.329159 5.087689 0.000000 -2.471891 0.000000
-83.837836 93.123657 11.188980 -1.094919 -2.072142 0.477887 0.184994 1.160924 -0.327995 0.107700 1.523236 -0.292584 0.092007 1.733238 -0.217027 0.027842 1.942006 -0.083303 1.707468 -2.521689 0.047547 0.586541 8.661779 -2.737347 14.796884 14.931469 -0.929079 -49.291323 2.441838 -55.387709 -20.421562 -1.507088 3.207665 8.859216 -1.286218 -21.756586 -8.258065 4.075496 -2.467533 36.248318 8.370142 67.565680 23.788145 4.013895 -6.650203 -12.759833 -5.439623 23.741719 5.552886 4.526480 7.675290 0.000000 1.544173 0.000000 6.813125 0.902812 -3.300777 0.000000 -2.187791 0.000000 -7.826693 4.274626 -7.752515 0.000000 2.323714 0.000000 -9.964323 -0.359675 5.100859 0.000000 -2.436450 0.000000
-83.849023 93.121826 11.192319 -1.058764 -2.079885 0.483398 0.179821 1.164817 -0.341114 0.102712 1.512851 -0.309725 0.081730 1.722855 -0.231221 0.016406 1.930240 -0.077110 1.715449 -2.496278 0.082254 0.586896 8.680154 -2.732346 14.814547 14.944209 -0.916853 -49.296004 2.467304 -55.381735 -20.390305 -1.508615 3.216413 8.841202 -1.316533 -21.706348 -8.222981 4.092104 -2.438105 36.227645 8.398738 67.584378 23.779624 4.049971 -6.642126 -12.760347 -5.414278 23.766826 5.539383 4.523879 7.678482 0.000000 1.556172 0.000000 6.780112 0.899949 -3.313055 0.000000 -2.184631 0.000000 -7.850470 4.277333 -7.753092 0.000000 2.351213 0.000000 -9.981161 -0.387259 5.106145 0.000000 -2.429214 0.000000
-83.852728 93.122815 11.198057 -1.053483 -2.080697 0.484208 0.190063 1.152431 -0.341434 0.112622 1.509357 -0.309370 0.088490 1.718057 -0.232566 0.024476 1.933063 -0.084610 1.691122 -2.513447 0.071650 0.577642 8.720041 -2.712636 14.798901 14.951661 -0.944148 -49.276613 2.476420 -55.351765 -20.349202 -1.431316 3.220728 8.834085 -1.401909 -21.748850 -8.247579 4.109028 -2.426004 36.198492 8.403529 67.585958 23.776730 4.071816 -6.633474 -12.774886 -5.358579 23.827577 5.535118 4.526293 7.679842 0.000000 1.561375 0.000000 6.785637 0.893935 -3.320372 0.000000 -2.156495 0.000000 -7.846552 4.279730 -7.752751 0.000000 2.357726 0.000000 -9.983943 -0.385056 5.104650 0.000000 -2.474442 0.000000
-83.856702 93.119501 11.205555 -1.038211 -2.084459 0.477596 0.182243 1.142677 -0.336396 0.104689 1.505205 -0.308958 0.082942 1.721828 -0.238957 0.020783 1.911891 -0.097172 1.707865 -2.494141 0.104274 0.580592 8.707446 -2.748192 14.810517 14.938035 -0.942480 -49.213364 2.513480 -55.368774 -20.360416 -1.342064 3.212504 8.855577 -1.539156 -21.771525 -8.218821 4.113506 -2.424352 36.196191 8.431282 67.616892 23.767954 4.102321 -6.622930 -12.752552 -5.371971 23.861650 5.506986 4.533723 7.688680 0.000000 1.561882 0.000000 6.799024 0.891158 -3.335702 0.000000 -2.193333 0.000000 -7.874126 4.277181 -7.747421 0.000000 2.382744 0.000000 -9.968829 -0.408865 5.116329 0.000000 -2.445255 0.000000
